HIERARCHY
ROOT Hips
{
	OFFSET 0.000000 89.005402 0.000000
	CHANNELS 6 Xposition Yposition Zposition Xrotation Yrotation Zrotation
	JOINT Spine
	{
		OFFSET 0.116900 10.681000 0.373400
		CHANNELS 3 Xrotation Yrotation Zrotation
		JOINT Spine1
		{
			OFFSET 0.000000 13.840401 0.053500
			CHANNELS 3 Xrotation Yrotation Zrotation
			JOINT Spine2
			{
				OFFSET 0.000000 14.712700 -0.366200
				CHANNELS 3 Xrotation Yrotation Zrotation
				JOINT Neck
				{
					OFFSET 0.000000 35.415497 -3.314200
					CHANNELS 3 Xrotation Yrotation Zrotation
					JOINT Head
					{
						OFFSET 0.000000 16.899200 1.218300
						CHANNELS 3 Xrotation Yrotation Zrotation
						JOINT HeadTop_End
						{
							OFFSET 0.000000 22.206207 2.192500
							CHANNELS 3 Xrotation Yrotation Zrotation
							End Site
							{
								OFFSET 0.000000 22.314178 0.000000
							}
						}
					}
				}
				JOINT LeftShoulder
				{
					OFFSET 12.896400 26.716293 -4.548400
					CHANNELS 3 Xrotation Yrotation Zrotation
					JOINT LeftArm
					{
						OFFSET 19.027000 -4.857010 -1.718400
						CHANNELS 3 Xrotation Yrotation Zrotation
						JOINT LeftForeArm
						{
							OFFSET 24.179897 0.000000 0.000000
							CHANNELS 3 Xrotation Yrotation Zrotation
							JOINT LeftHand
							{
								OFFSET 27.156403 0.000000 0.000000
								CHANNELS 3 Xrotation Yrotation Zrotation
								JOINT LeftHandIndex1
								{
									OFFSET 16.441200 0.000000 0.000000
									CHANNELS 3 Xrotation Yrotation Zrotation
									JOINT LeftHandIndex2
									{
										OFFSET 4.821899 0.000000 0.000000
										CHANNELS 3 Xrotation Yrotation Zrotation
										JOINT LeftHandIndex3
										{
											OFFSET 6.386497 0.000000 0.000000
											CHANNELS 3 Xrotation Yrotation Zrotation
											JOINT LeftHandIndex4
											{
												OFFSET 5.188988 0.000000 0.000000
												CHANNELS 3 Xrotation Yrotation Zrotation
												End Site
												{
													OFFSET -0.178703 5.185913 0.000177
												}
											}
										}
									}
								}
								JOINT LeftHandThumb1
								{
									OFFSET 6.534897 -5.032593 5.900300
									CHANNELS 3 Xrotation Yrotation Zrotation
									JOINT LeftHandThumb2
									{
										OFFSET 3.818176 -2.204422 2.204423
										CHANNELS 3 Xrotation Yrotation Zrotation
										JOINT LeftHandThumb3
										{
											OFFSET 3.252098 -1.877594 1.877601
											CHANNELS 3 Xrotation Yrotation Zrotation
											JOINT LeftHandThumb4
											{
												OFFSET 5.251778 -3.032120 3.032117
												CHANNELS 3 Xrotation Yrotation Zrotation
												End Site
												{
													OFFSET 0.000023 6.780014 0.000000
												}
											}
										}
									}
								}
							}
						}
					}
				}
				JOINT RightShoulder
				{
					OFFSET -12.896300 26.716293 -4.548400
					CHANNELS 3 Xrotation Yrotation Zrotation
					JOINT RightArm
					{
						OFFSET -19.027000 -4.857010 -1.718400
						CHANNELS 3 Xrotation Yrotation Zrotation
						JOINT RightForeArm
						{
							OFFSET -24.179897 0.000000 0.000000
							CHANNELS 3 Xrotation Yrotation Zrotation
							JOINT RightHand
							{
								OFFSET -27.156403 0.000000 0.000000
								CHANNELS 3 Xrotation Yrotation Zrotation
								JOINT RightHandThumb1
								{
									OFFSET -6.591202 -4.852203 5.988100
									CHANNELS 3 Xrotation Yrotation Zrotation
									JOINT RightHandThumb2
									{
										OFFSET -3.818176 -2.204422 2.204423
										CHANNELS 3 Xrotation Yrotation Zrotation
										JOINT RightHandThumb3
										{
											OFFSET -3.252098 -1.877594 1.877601
											CHANNELS 3 Xrotation Yrotation Zrotation
											JOINT RightHandThumb4
											{
												OFFSET -5.251778 -3.032120 3.032117
												CHANNELS 3 Xrotation Yrotation Zrotation
												End Site
												{
													OFFSET -0.000023 6.780014 0.000000
												}
											}
										}
									}
								}
								JOINT RightHandIndex1
								{
									OFFSET -16.029404 0.000000 0.000000
									CHANNELS 3 Xrotation Yrotation Zrotation
									JOINT RightHandIndex2
									{
										OFFSET -5.213303 0.000000 0.000000
										CHANNELS 3 Xrotation Yrotation Zrotation
										JOINT RightHandIndex3
										{
											OFFSET -6.386528 0.000000 0.000000
											CHANNELS 3 Xrotation Yrotation Zrotation
											JOINT RightHandIndex4
											{
												OFFSET -5.189026 0.000000 0.000000
												CHANNELS 3 Xrotation Yrotation Zrotation
												End Site
												{
													OFFSET 0.236702 5.183624 0.001972
												}
											}
										}
									}
								}
							}
						}
					}
				}
			}
		}
	}
	JOINT LeftUpLeg
	{
		OFFSET 14.073000 -7.904099 -1.463000
		CHANNELS 3 Xrotation Yrotation Zrotation
		JOINT LeftLeg
		{
			OFFSET -0.109806 -34.073280 4.093200
			CHANNELS 3 Xrotation Yrotation Zrotation
			JOINT LeftFoot
			{
				OFFSET 0.109806 -29.899420 -6.319000
				CHANNELS 3 Xrotation Yrotation Zrotation
				JOINT LeftToeBase
				{
					OFFSET 1.551100 -14.988700 20.535801
					CHANNELS 3 Xrotation Yrotation Zrotation
					JOINT LeftToe_End
					{
						OFFSET 0.221200 0.570800 13.248301
						CHANNELS 3 Xrotation Yrotation Zrotation
						End Site
						{
							OFFSET 0.000000 13.262435 0.000000
						}
					}
				}
			}
		}
	}
	JOINT RightUpLeg
	{
		OFFSET -13.839300 -7.904099 -1.463000
		CHANNELS 3 Xrotation Yrotation Zrotation
		JOINT RightLeg
		{
			OFFSET 0.109694 -34.073219 4.093300
			CHANNELS 3 Xrotation Yrotation Zrotation
			JOINT RightFoot
			{
				OFFSET -0.109694 -29.899384 -6.319200
				CHANNELS 3 Xrotation Yrotation Zrotation
				JOINT RightToeBase
				{
					OFFSET -1.551100 -14.988700 20.535801
					CHANNELS 3 Xrotation Yrotation Zrotation
					JOINT RightToe_End
					{
						OFFSET -0.221200 0.570900 13.248299
						CHANNELS 3 Xrotation Yrotation Zrotation
						End Site
						{
							OFFSET 0.000000 13.262440 0.000000
						}
					}
				}
			}
		}
	}
}
MOTION
Frames: 6
Frame Time: 0.033333
-0.951480 70.194130 0.005535 -5.484362 -61.058811 -5.607672 5.950921 -2.417910 -2.147976 11.863954 -4.878991 -2.464367 11.855415 -4.900837 -2.460960 3.347689 8.176244 -0.353047 -10.046274 44.322989 -6.908972 0.000001 -0.000001 0.000000 5.399987 -15.934760 -11.554926 -21.139191 2.366572 -11.411553 0.000000 -30.463719 0.000000 21.975321 -14.590963 48.354106 -0.268338 -1.836163 -4.540318 0.039220 0.677488 -6.626213 0.000000 0.000002 0.000000 0.000000 0.000004 0.000000 0.342736 -18.374771 14.788295 8.994158 15.802155 2.686161 -7.335820 -0.421717 13.147353 -0.000000 -0.000003 0.000001 0.445226 14.970931 11.085303 33.961152 -16.561242 42.950255 0.000164 82.071280 -0.000164 7.977601 28.046558 -23.560500 -7.378074 -1.422125 12.546964 8.119579 -29.519473 -3.209622 -2.707123 -43.382182 -22.482473 -0.000000 0.000001 0.000001 1.810919 -6.347340 75.720707 3.078399 -4.381960 70.164068 2.638756 -4.197922 64.291901 0.000000 0.000000 -0.000001 -42.383926 6.765457 41.941494 54.577736 7.428430 -1.514056 -0.282465 2.424066 -23.201640 -0.658672 0.000006 -0.000002 0.000000 0.000000 -0.000000 -23.006621 -12.082642 -40.871507 52.674798 9.488161 4.350716 -23.107905 -6.271206 23.986310 -1.782511 0.000013 0.000000 -0.000000 -0.000000 -0.000000 
-1.159238 69.934410 -0.162580 -4.775370 -59.810621 -5.560569 5.970016 -2.569657 -1.977471 11.914906 -5.171798 -2.059378 11.906109 -5.193319 -2.056232 3.194151 8.083665 -0.068259 -10.326390 44.032990 -6.706441 -0.000000 -0.000001 0.000001 5.314224 -16.466760 -11.928633 -21.079953 1.562045 -10.765743 -0.000001 -30.740851 -0.000006 19.449683 -15.082805 47.558044 -0.268340 -1.836169 -4.540319 0.039219 0.677477 -6.626215 0.000001 0.000016 0.000001 0.000000 0.000000 -0.000000 0.342723 -18.374797 14.788277 8.994160 15.802140 2.686167 -7.335821 -0.421719 13.147360 -0.000002 0.000001 0.000000 0.449618 14.896750 11.051699 33.779039 -16.289918 43.360489 -0.000085 82.061984 0.000068 8.099325 27.727923 -23.490977 -7.378076 -1.422124 12.546960 8.119581 -29.519473 -3.209624 -2.707123 -43.382182 -22.482473 -0.000001 0.000002 0.000000 1.810918 -6.347340 75.720700 3.078398 -4.381961 70.164068 2.638757 -4.197923 64.291901 0.000000 -0.000002 0.000001 -44.000198 5.918652 42.183921 55.008400 6.841414 -0.724279 -0.190719 1.778722 -23.739437 -0.361694 -0.000007 0.000006 -0.000000 -0.000000 0.000000 -22.641906 -12.596698 -40.724853 53.716914 8.902362 4.931847 -23.547274 -6.295972 23.837695 -2.196639 -0.000013 0.000006 0.000000 -0.000000 0.000000 
-1.372958 69.460396 -0.349855 -3.728762 -57.544241 -5.435083 6.017396 -2.885917 -1.826190 12.027760 -5.789578 -1.598653 12.017545 -5.811714 -1.596024 2.825574 7.921054 0.359742 -10.989644 43.432787 -6.299434 -0.000000 -0.000000 -0.000001 4.891584 -16.538963 -12.051510 -20.711519 -0.399023 -9.043195 0.000001 -31.491417 -0.000003 17.546331 -14.647952 46.694885 -0.268337 -1.836157 -4.540317 0.039223 0.677501 -6.626215 -0.000002 -0.000009 -0.000002 -0.000000 -0.000001 0.000000 0.342731 -18.374787 14.788288 8.994157 15.802131 2.686159 -7.335818 -0.421709 13.147361 0.000002 0.000000 -0.000000 0.495445 14.242373 10.655329 33.106579 -15.849089 44.150435 0.000327 82.135511 -0.000300 8.631062 27.280062 -23.397955 -7.378075 -1.422127 12.546964 8.119580 -29.519473 -3.209624 -2.707121 -43.382189 -22.482473 -0.000001 -0.000002 -0.000002 1.810920 -6.347343 75.720707 3.078398 -4.381963 70.164068 2.638754 -4.197923 64.291901 0.000002 -0.000002 0.000001 -46.730211 4.433930 42.487315 56.372239 4.793795 -0.759762 -1.005418 1.850419 -22.320237 -0.150565 0.000013 0.000005 0.000000 -0.000000 0.000000 -21.899786 -13.835159 -40.696080 54.861626 8.370120 5.885511 -24.518637 -6.495427 23.786279 -2.726693 0.000006 0.000004 0.000000 -0.000000 0.000000 
-1.548116 68.865456 -0.470921 -2.780853 -54.439022 -5.249720 6.140005 -3.314854 -1.778662 12.294993 -6.629052 -1.190538 12.280923 -6.655269 -1.188242 2.102551 7.731403 0.847446 -12.178655 42.677822 -5.750132 -0.000002 -0.000001 0.000000 4.234860 -15.709129 -11.518437 -19.954488 -3.260770 -6.520930 0.000007 -32.406495 0.000011 15.260226 -13.634375 44.870515 -0.268338 -1.836161 -4.540317 0.039222 0.677489 -6.626216 0.000001 0.000008 0.000001 -0.000001 -0.000000 0.000000 0.342727 -18.374800 14.788287 8.994150 15.802150 2.686171 -7.335819 -0.421718 13.147347 -0.000000 0.000001 0.000003 0.531696 13.614204 10.313162 32.289036 -15.973178 45.838725 0.000220 82.252430 -0.000238 9.442600 27.457197 -22.809333 -7.378077 -1.422126 12.546964 8.119580 -29.519473 -3.209618 -2.707128 -43.382192 -22.482471 0.000000 -0.000002 0.000002 1.810917 -6.347342 75.720707 3.078398 -4.381962 70.164068 2.638756 -4.197923 64.291901 0.000000 -0.000000 0.000000 -49.846724 2.919311 42.094142 58.368112 2.823356 -0.966340 -2.896700 1.989603 -19.489132 -0.385638 -0.000003 -0.000002 0.000000 -0.000001 -0.000000 -20.715108 -15.744814 -41.042494 55.630603 8.235841 6.919243 -25.781570 -6.943003 24.207780 -3.282228 -0.000023 0.000001 0.000000 0.000000 -0.000000 
-1.613060 68.401489 -0.349470 -2.248771 -51.392850 -5.478980 6.303840 -3.682564 -1.747789 12.655687 -7.359739 -0.779474 12.638091 -7.389766 -0.777373 1.088381 7.612773 1.198337 -13.414265 42.173526 -5.420713 0.000001 -0.000000 -0.000000 3.388315 -13.669007 -9.950431 -18.705639 -6.544116 -3.691129 -0.000004 -32.721462 -0.000009 11.512969 -12.285974 41.098461 -0.268337 -1.836158 -4.540316 0.039219 0.677499 -6.626216 -0.000001 -0.000001 -0.000000 -0.000000 -0.000001 0.000000 0.342736 -18.374782 14.788290 8.994154 15.802151 2.686185 -7.335822 -0.421705 13.147353 -0.000001 -0.000001 0.000002 0.596804 12.321008 9.575039 31.750322 -15.195352 47.882676 -0.000063 81.758799 0.000020 10.691706 28.525597 -22.404364 -7.378075 -1.422125 12.546962 8.119579 -29.519477 -3.209620 -2.707120 -43.382192 -22.482471 -0.000000 0.000001 -0.000002 1.810919 -6.347340 75.720700 3.078398 -4.381962 70.164068 2.638755 -4.197923 64.291894 0.000001 -0.000000 0.000000 -52.655417 1.710739 42.194976 61.160239 4.441776 -1.450965 -3.911221 2.154602 -17.723472 -0.965397 -0.000006 0.000005 0.000001 -0.000000 0.000000 -18.772099 -17.515313 -40.792461 55.581050 7.567594 7.593474 -26.722284 -7.474279 25.129466 -3.914122 0.000009 0.000002 -0.000000 0.000000 -0.000000 
-1.715846 68.500092 0.274794 -1.503103 -49.560744 -6.071493 6.350306 -3.844146 -1.508858 12.806795 -7.696686 -0.167439 12.792615 -7.720188 -0.166129 0.158320 7.645914 1.312185 -13.610631 42.304768 -5.710273 -0.000000 0.000001 -0.000000 2.273276 -10.694695 -7.397020 -16.926662 -9.428182 -1.280300 -0.000006 -31.147575 -0.000004 5.565598 -10.523422 34.869410 -0.268339 -1.836174 -4.540322 0.039221 0.677487 -6.626215 0.000001 -0.000003 -0.000000 0.000000 -0.000003 -0.000001 0.342733 -18.374778 14.788282 8.994158 15.802146 2.686158 -7.335828 -0.421716 13.147358 0.000003 0.000001 -0.000000 0.620747 11.558629 9.233005 31.912611 -14.641786 49.250107 0.000160 80.726532 -0.000165 11.233603 29.963719 -21.041520 -7.378075 -1.422125 12.546966 8.119578 -29.519473 -3.209617 -2.707123 -43.382186 -22.482469 0.000000 -0.000002 0.000001 1.810921 -6.347342 75.720707 3.078398 -4.381962 70.164068 2.638757 -4.197923 64.291901 0.000001 -0.000003 -0.000000 -53.687240 1.236428 44.752783 66.124844 7.702811 -5.161456 -6.153516 9.682883 -14.458775 -1.044289 -0.000008 -0.000004 -0.000000 -0.000000 0.000000 -16.250318 -18.937654 -39.008187 53.364114 6.222642 7.837100 -26.294427 -7.753015 26.409838 -5.118025 0.000031 -0.000003 -0.000000 0.000000 0.000000 
